# xmcd
#
# Track frame offsets:
#	150
#	20510
#	39195
#	55100
#	75775
#	99440
#	122635
#	142672
#	159977
#	182512
#	203106
#	222461
#
# Disc length: 3305 seconds
#
# Revision: 6
# Processed by: cddbd v1.4PL0 Copyright (c) Steve Scherf et al.
# Submitted via: EasyCDDAExtractor 4.5.0.2
#
DISCID=8a0ce70c
DTITLE=Adriano Celentano - Io non so parlar d'amore
DYEAR=1999
DGENRE=Blues
TTITLE0=Gelosia
TTITLE1=L'emozione non ha voce
TTITLE2=L'Arcobaleno
TTITLE3=Una rosa pericolosa
TTITLE4=Qual'è la direzione
TTITLE5=Angel
TTITLE6=L'uomo di cartone
TTITLE7=Le pesche d'inverno
TTITLE8=Senza amore
TTITLE9=Il sospetto
TTITLE10=Mi domando
TTITLE11=Sarai uno straccio
EXTD=
EXTT0=
EXTT1=
EXTT2=
EXTT3=
EXTT4=
EXTT5=
EXTT6=
EXTT7=
EXTT8=
EXTT9=
EXTT10=
EXTT11=
PLAYORDER=
